<?xml version="1.0" standalone="no"?>
<!DOCTYPE svg PUBLIC "-//W3C//DTD SVG 20010904//EN"
 "http://www.w3.org/TR/2001/REC-SVG-20010904/DTD/svg10.dtd">
<svg version="1.0" xmlns="http://www.w3.org/2000/svg"
 width="150.000000pt" height="97.000000pt" viewBox="0 0 150.000000 97.000000"
 preserveAspectRatio="xMidYMid meet">

<g transform="translate(0.000000,97.000000) scale(0.100000,-0.100000)"
fill="#000000" stroke="none">
<path d="M715 897 c-45 -21 -141 -132 -178 -206 -27 -55 -32 -77 -35 -160 -2
-53 -9 -102 -15 -109 -8 -10 -23 -12 -49 -8 -82 13 -154 -51 -144 -128 5 -43
44 -91 82 -100 14 -4 26 -16 30 -30 9 -38 57 -77 100 -82 77 -10 138 59 127
142 -3 27 -1 43 8 51 8 6 57 13 110 15 84 3 105 8 163 37 92 45 202 152 212
205 22 122 -89 294 -230 357 -61 27 -142 34 -181 16z m172 -71 c97 -46 183
-161 183 -248 0 -41 -35 -78 -75 -78 -79 0 -200 87 -244 175 -34 68 -38 114
-11 148 28 35 75 36 147 3z m-182 -171 c48 -99 166 -189 265 -202 l41 -6 -33
-28 c-18 -15 -58 -40 -88 -56 -48 -25 -68 -28 -162 -31 -103 -4 -109 -5 -129
-30 -17 -22 -20 -36 -16 -79 6 -60 -9 -88 -55 -99 -36 -8 -78 32 -78 76 0 27
-3 30 -30 30 -36 0 -80 39 -80 70 0 12 11 32 24 45 21 21 30 23 77 18 45 -4
58 -2 81 16 25 20 26 26 30 129 3 116 20 166 85 247 l28 35 7 -42 c4 -23 19
-65 33 -93z"/>
<path d="M857 723 c-14 -13 -7 -60 11 -76 21 -19 67 -23 77 -6 22 34 -60 110
-88 82z"/>
</g>
</svg>
