<?xml version="1.0" standalone="no"?>
<!DOCTYPE svg PUBLIC "-//W3C//DTD SVG 20010904//EN"
 "http://www.w3.org/TR/2001/REC-SVG-20010904/DTD/svg10.dtd">
<svg version="1.0" xmlns="http://www.w3.org/2000/svg"
 width="158.000000pt" height="101.000000pt" viewBox="0 0 158.000000 101.000000"
 preserveAspectRatio="xMidYMid meet">

<g transform="translate(0.000000,101.000000) scale(0.100000,-0.100000)"
fill="#000000" stroke="none">
<path d="M616 908 c-24 -39 -220 -798 -208 -810 7 -7 133 24 399 97 213 59
396 111 405 116 27 14 31 51 14 121 -59 235 -241 419 -472 478 -99 26 -120 25
-138 -2z m167 -60 c197 -60 361 -251 400 -465 5 -28 3 -32 -21 -38 -15 -3 -34
-8 -42 -11 -12 -3 -19 10 -28 55 -18 84 -76 194 -135 255 -61 61 -172 120
-262 138 -33 7 -61 12 -62 13 -1 0 3 20 9 43 10 41 12 43 42 37 17 -3 62 -15
99 -27z m-54 -127 c162 -50 279 -179 313 -345 7 -30 10 -57 7 -59 -12 -10
-570 -159 -576 -153 -5 5 132 549 144 569 7 12 48 8 112 -12z"/>
<path d="M666 619 c-55 -43 -23 -129 49 -129 70 0 103 87 49 129 -15 12 -37
21 -49 21 -12 0 -34 -9 -49 -21z m72 -57 c3 -18 -1 -22 -22 -22 -19 0 -26 5
-26 18 0 39 43 43 48 4z"/>
<path d="M820 460 c-12 -12 -20 -33 -20 -55 0 -46 29 -75 74 -75 39 0 76 37
76 75 0 12 -9 34 -21 49 -26 33 -79 36 -109 6z m75 -55 c0 -13 -8 -21 -22 -23
-19 -3 -23 1 -23 23 0 22 4 26 23 23 14 -2 22 -10 22 -23z"/>
<path d="M582 377 c-29 -31 -28 -72 3 -102 48 -49 125 -16 125 53 0 67 -82 98
-128 49z m78 -47 c0 -24 -26 -38 -42 -22 -16 16 -2 42 22 42 13 0 20 -7 20
-20z"/>
</g>
</svg>
