<?xml version="1.0" standalone="no"?>
<!DOCTYPE svg PUBLIC "-//W3C//DTD SVG 20010904//EN"
 "http://www.w3.org/TR/2001/REC-SVG-20010904/DTD/svg10.dtd">
<svg version="1.0" xmlns="http://www.w3.org/2000/svg"
 width="142.000000pt" height="104.000000pt" viewBox="0 0 142.000000 104.000000"
 preserveAspectRatio="xMidYMid meet">

<g transform="translate(0.000000,104.000000) scale(0.100000,-0.100000)"
fill="#000000" stroke="none">
<path d="M623 939 c-30 -9 -103 -72 -103 -89 0 -4 -22 -10 -50 -12 -152 -15
-233 -210 -134 -328 l26 -30 -25 0 c-39 0 -49 -20 -37 -76 20 -88 81 -163 168
-208 18 -9 32 -24 32 -35 0 -10 8 -25 18 -34 16 -15 45 -17 194 -17 157 0 177
2 191 18 10 10 17 26 17 35 0 9 15 24 33 33 56 29 95 64 126 112 37 59 58 136
42 156 -8 9 -8 21 0 45 16 46 3 112 -31 157 -16 22 -30 44 -30 49 0 21 -63 86
-101 105 -21 11 -53 20 -71 20 -26 0 -39 8 -62 36 -49 62 -125 85 -203 63z
m112 -53 c19 -8 44 -31 58 -53 22 -35 29 -39 71 -41 72 -3 153 -52 86 -52
-115 0 -211 -121 -181 -228 10 -32 9 -32 -25 -32 l-34 0 0 155 0 155 -25 0
-25 0 0 -137 0 -138 -93 93 c-68 68 -98 91 -110 86 -32 -12 -17 -39 70 -126
l88 -88 -81 0 c-89 0 -126 16 -168 73 -29 39 -29 125 0 164 36 48 82 73 134
73 44 0 50 3 69 35 23 39 75 75 109 75 12 0 38 -6 57 -14z m273 -216 c36 -22
72 -74 72 -106 0 -12 -5 -35 -11 -53 l-11 -31 -109 0 -110 0 -15 35 c-45 108
84 216 184 155z m62 -255 c0 -53 -88 -152 -160 -181 -34 -14 -40 -21 -40 -45
l0 -29 -160 0 -160 0 0 29 c0 24 -6 31 -40 45 -51 20 -116 79 -141 127 -37 74
-60 69 341 69 317 0 360 -2 360 -15z"/>
</g>
</svg>
